# xmcd CD database file
#
# Track frame offsets:
#	150
#	43950
#	79425
#	129221
#	179836
#	216724
#	229900
#	245078
#	265136
#	287995
#	307865
#
# Disc length: 4232 seconds
#
# Revision: 1
# Processed by: cddbd v1.5.1PL0 Copyright (c) Steve Scherf et al.
# Submitted via: CDex 1.51
#
DISCID=b010860b
DTITLE=Pehnt, Annette  - Ich muss los CD3v3
DYEAR=2001
DGENRE=Hörbuch
TTITLE0=Gregor zog aus der Stadt weg und machte eine Abschiedsfeier ...
TTITLE1=Dorst stand auf, wusch sich die Hände und putzte lange die Zähne ...
TTITLE2=Elner fiel ihm gleich ins Auge ...
TTITLE3=Zu Hause zerriss Dorst das Pappschild und setzte sich an den Küchentisch ...
TTITLE4=Als er wieder gesund war, ging er in seine Wohnung ...
TTITLE5=In den nächsten Wochen fing Elner doch zu fragen an ...
TTITLE6=Du könntest bei mir wohnen, wenn ich schon nicht zu dir kommen darf ...
TTITLE7=Ich wusste es, ihre Stimme schwappte vor Freude über ...
TTITLE8=Elner rief nicht an ...
TTITLE9=Vier Nächte schlief er im Pilztunnel ...
TTITLE10=In einem Kiosk leuchten Bonbons hinter Plexiglas ...
EXTD=YEAR: 2001
EXTT0=
EXTT1=
EXTT2=
EXTT3=
EXTT4=
EXTT5=
EXTT6=
EXTT7=
EXTT8=
EXTT9=
EXTT10=
PLAYORDER=
